<svg width="134" height="200" viewBox="0 0 134 200" fill="none" xmlns="http://www.w3.org/2000/svg">
<g clip-path="url(#clip0_125_277)">
<path d="M33.6123 10.1279C33.6123 4.61288 38.0944 0.0902573 43.582 0.640679C66.4044 2.92989 87.8604 13.0275 104.223 29.3898C122.95 48.1168 133.47 73.516 133.47 100C133.47 126.484 122.95 151.883 104.223 170.61C87.8604 186.972 66.4044 197.07 43.582 199.36C38.0944 199.91 33.6125 195.387 33.6125 189.873C33.6125 184.357 38.1007 179.952 43.5726 179.264C61.0872 177.063 77.4861 169.103 90.1007 156.488C105.083 141.507 113.498 121.187 113.498 100C113.498 78.8129 105.083 58.4935 90.1007 43.5118C77.4861 30.8974 61.0872 22.9373 43.5726 20.7368C38.1005 20.0493 33.6123 15.6429 33.6123 10.1279Z" fill="black"/>
<path d="M-0.000221252 99.9161C-0.000221252 118.434 15.0112 133.445 33.5287 133.445C52.0462 133.445 67.0576 118.434 67.0576 99.9161C67.0576 81.3986 52.0462 66.3872 33.5287 66.3872C15.0112 66.3872 -0.000221252 81.3986 -0.000221252 99.9161Z" fill="black"/>
</g>
<defs>
<clipPath id="clip0_125_277">
<rect width="133.613" height="200" fill="white"/>
</clipPath>
</defs>
</svg>
